HIERARCHY
ROOT Hips
{
	OFFSET 0.000000 83.214638 0.000000
	CHANNELS 6 Xposition Yposition Zposition Xrotation Yrotation Zrotation
	JOINT Pelvis
	{
		OFFSET 0.000000 0.000000 0.000000
		CHANNELS 3 Xrotation Yrotation Zrotation
		JOINT LeftUpLeg
		{
			OFFSET 8.479700 -4.795502 -0.379100
			CHANNELS 3 Xrotation Yrotation Zrotation
			JOINT LeftLeg
			{
				OFFSET 0.024144 -32.555107 0.112900
				CHANNELS 3 Xrotation Yrotation Zrotation
				JOINT LeftFoot
				{
					OFFSET -0.024144 -32.638630 -3.012600
					CHANNELS 3 Xrotation Yrotation Zrotation
					JOINT LeftToeBase
					{
						OFFSET 0.970200 -13.225400 11.864200
						CHANNELS 3 Xrotation Yrotation Zrotation
						End Site
						{
							OFFSET 0.000000 12.319262 0.000000
						}
					}
					JOINT LFootTongue
					{
						OFFSET 1.142400 -1.059800 6.665200
						CHANNELS 3 Xrotation Yrotation Zrotation
						End Site
						{
							OFFSET 0.000000 12.319262 0.000000
						}
					}
				}
				JOINT LeftPantLeg
				{
					OFFSET 0.918482 -16.533964 -2.284700
					CHANNELS 3 Xrotation Yrotation Zrotation
					End Site
					{
						OFFSET 0.350399 24.744368 0.000000
					}
				}
			}
		}
		JOINT RightUpLeg
		{
			OFFSET -8.479700 -4.795502 -0.379100
			CHANNELS 3 Xrotation Yrotation Zrotation
			JOINT RightLeg
			{
				OFFSET -0.023144 -32.555092 0.112900
				CHANNELS 3 Xrotation Yrotation Zrotation
				JOINT RightFoot
				{
					OFFSET 0.023144 -32.638641 -3.012700
					CHANNELS 3 Xrotation Yrotation Zrotation
					JOINT RightToeBase
					{
						OFFSET -0.970200 -13.225400 11.864200
						CHANNELS 3 Xrotation Yrotation Zrotation
						End Site
						{
							OFFSET 0.000000 12.319244 0.000000
						}
					}
					JOINT RFootTongue
					{
						OFFSET -1.142200 -1.059800 6.665200
						CHANNELS 3 Xrotation Yrotation Zrotation
						End Site
						{
							OFFSET 0.000000 12.319243 0.000000
						}
					}
				}
				JOINT RightPantLeg
				{
					OFFSET -0.919482 -16.533978 -2.284800
					CHANNELS 3 Xrotation Yrotation Zrotation
					End Site
					{
						OFFSET -0.350400 24.744419 0.000000
					}
				}
			}
		}
	}
	JOINT Spine
	{
		OFFSET 0.000000 7.722000 1.166200
		CHANNELS 3 Xrotation Yrotation Zrotation
		JOINT Spine1
		{
			OFFSET 0.000000 12.024101 0.248800
			CHANNELS 3 Xrotation Yrotation Zrotation
			JOINT Spine2
			{
				OFFSET 0.000000 11.502998 -0.491200
				CHANNELS 3 Xrotation Yrotation Zrotation
				JOINT Neck
				{
					OFFSET 0.000000 18.430702 -3.123100
					CHANNELS 3 Xrotation Yrotation Zrotation
					JOINT Head
					{
						OFFSET 0.000000 9.051102 1.034000
						CHANNELS 3 Xrotation Yrotation Zrotation
						JOINT HairB
						{
							OFFSET 0.208400 24.786102 24.822300
							CHANNELS 3 Xrotation Yrotation Zrotation
							End Site
							{
								OFFSET 0.000000 32.263779 0.000000
							}
						}
						JOINT HairA
						{
							OFFSET -7.081100 24.428299 23.196600
							CHANNELS 3 Xrotation Yrotation Zrotation
							End Site
							{
								OFFSET 0.000000 32.263779 0.000000
							}
						}
						JOINT Hat
						{
							OFFSET 16.728800 15.048294 -15.439601
							CHANNELS 3 Xrotation Yrotation Zrotation
							End Site
							{
								OFFSET 0.000000 32.263779 0.000000
							}
						}
					}
				}
				JOINT LeftShoulder
				{
					OFFSET 6.197800 13.665199 -4.064700
					CHANNELS 3 Xrotation Yrotation Zrotation
					JOINT LeftArm
					{
						OFFSET 7.778100 -0.187103 -1.709300
						CHANNELS 3 Xrotation Yrotation Zrotation
						JOINT LeftForeArm
						{
							OFFSET 22.049376 0.000000 0.000000
							CHANNELS 3 Xrotation Yrotation Zrotation
							JOINT LeftHand
							{
								OFFSET 23.009392 0.000000 0.000000
								CHANNELS 3 Xrotation Yrotation Zrotation
								JOINT LeftHandThumb1
								{
									OFFSET 3.507191 -2.063065 3.133727
									CHANNELS 3 Xrotation Yrotation Zrotation
									JOINT LeftHandThumb2
									{
										OFFSET 3.101337 -1.790558 1.790558
										CHANNELS 3 Xrotation Yrotation Zrotation
										JOINT LeftHandThumb3
										{
											OFFSET 3.058640 -1.765907 1.765906
											CHANNELS 3 Xrotation Yrotation Zrotation
											End Site
											{
												OFFSET -0.415260 3.926476 -0.049563
											}
										}
									}
								}
								JOINT LeftHandIndex1
								{
									OFFSET 11.334419 -0.901459 3.706815
									CHANNELS 3 Xrotation Yrotation Zrotation
									JOINT LeftHandIndex2
									{
										OFFSET 3.283112 0.000000 0.000000
										CHANNELS 3 Xrotation Yrotation Zrotation
										JOINT LeftHandIndex3
										{
											OFFSET 3.323853 0.000000 0.000000
											CHANNELS 3 Xrotation Yrotation Zrotation
											End Site
											{
												OFFSET -1.135597 3.097809 0.402452
											}
										}
									}
								}
								JOINT LeftHandMiddle1
								{
									OFFSET 11.335861 0.000000 0.000000
									CHANNELS 3 Xrotation Yrotation Zrotation
									JOINT LeftHandMiddle2
									{
										OFFSET 3.410492 0.000000 0.000000
										CHANNELS 3 Xrotation Yrotation Zrotation
										JOINT LeftHandMiddle3
										{
											OFFSET 3.312172 0.000000 0.000000
											CHANNELS 3 Xrotation Yrotation Zrotation
											End Site
											{
												OFFSET -1.150200 3.080154 0.400270
											}
										}
									}
								}
								JOINT LeftHandRing1
								{
									OFFSET 11.514786 -0.013176 -3.003090
									CHANNELS 3 Xrotation Yrotation Zrotation
									JOINT LeftHandRing2
									{
										OFFSET 3.053307 0.000000 0.000000
										CHANNELS 3 Xrotation Yrotation Zrotation
										JOINT LeftHandRing3
										{
											OFFSET 3.295807 0.000000 0.000000
											CHANNELS 3 Xrotation Yrotation Zrotation
											End Site
											{
												OFFSET -1.281006 3.013344 0.375733
											}
										}
									}
								}
								JOINT LeftHandPinky1
								{
									OFFSET 10.518692 -0.960396 -5.730441
									CHANNELS 3 Xrotation Yrotation Zrotation
									JOINT LeftHandPinky2
									{
										OFFSET 2.861649 0.000000 0.000000
										CHANNELS 3 Xrotation Yrotation Zrotation
										JOINT LeftHandPinky3
										{
											OFFSET 2.863380 0.000000 0.000000
											CHANNELS 3 Xrotation Yrotation Zrotation
											End Site
											{
												OFFSET -0.843597 2.711159 0.369971
											}
										}
									}
								}
							}
							JOINT LSleeve
							{
								OFFSET 6.676277 -0.344902 -1.011730
								CHANNELS 3 Xrotation Yrotation Zrotation
								End Site
								{
									OFFSET 0.000000 14.885353 0.000000
								}
							}
						}
					}
				}
				JOINT RightShoulder
				{
					OFFSET -6.197800 13.665199 -4.064700
					CHANNELS 3 Xrotation Yrotation Zrotation
					JOINT RightArm
					{
						OFFSET -7.778100 -0.187103 -1.709300
						CHANNELS 3 Xrotation Yrotation Zrotation
						JOINT RightForeArm
						{
							OFFSET -22.049376 0.000000 0.000000
							CHANNELS 3 Xrotation Yrotation Zrotation
							JOINT RightHand
							{
								OFFSET -23.009392 0.000000 0.000000
								CHANNELS 3 Xrotation Yrotation Zrotation
								JOINT RightHandThumb1
								{
									OFFSET -3.507191 -2.063065 3.133727
									CHANNELS 3 Xrotation Yrotation Zrotation
									JOINT RightHandThumb2
									{
										OFFSET -3.101337 -1.790558 1.790558
										CHANNELS 3 Xrotation Yrotation Zrotation
										JOINT RightHandThumb3
										{
											OFFSET -3.058640 -1.765907 1.765906
											CHANNELS 3 Xrotation Yrotation Zrotation
											End Site
											{
												OFFSET 0.415260 3.926476 -0.049563
											}
										}
									}
								}
								JOINT RightHandIndex1
								{
									OFFSET -11.334419 -0.901459 3.706815
									CHANNELS 3 Xrotation Yrotation Zrotation
									JOINT RightHandIndex2
									{
										OFFSET -3.283112 0.000000 0.000000
										CHANNELS 3 Xrotation Yrotation Zrotation
										JOINT RightHandIndex3
										{
											OFFSET -3.323853 0.000000 0.000000
											CHANNELS 3 Xrotation Yrotation Zrotation
											End Site
											{
												OFFSET 1.135597 3.097809 0.402452
											}
										}
									}
								}
								JOINT RightHandMiddle1
								{
									OFFSET -11.335861 0.000000 0.000000
									CHANNELS 3 Xrotation Yrotation Zrotation
									JOINT RightHandMiddle2
									{
										OFFSET -3.410492 0.000000 0.000000
										CHANNELS 3 Xrotation Yrotation Zrotation
										JOINT RightHandMiddle3
										{
											OFFSET -3.312172 0.000000 0.000000
											CHANNELS 3 Xrotation Yrotation Zrotation
											End Site
											{
												OFFSET 1.150200 3.080154 0.400270
											}
										}
									}
								}
								JOINT RightHandRing1
								{
									OFFSET -11.514786 -0.013176 -3.003090
									CHANNELS 3 Xrotation Yrotation Zrotation
									JOINT RightHandRing2
									{
										OFFSET -3.053307 0.000000 0.000000
										CHANNELS 3 Xrotation Yrotation Zrotation
										JOINT RightHandRing3
										{
											OFFSET -3.295807 0.000000 0.000000
											CHANNELS 3 Xrotation Yrotation Zrotation
											End Site
											{
												OFFSET 1.281006 3.013344 0.375733
											}
										}
									}
								}
								JOINT RightHandPinky1
								{
									OFFSET -10.518692 -0.960396 -5.730441
									CHANNELS 3 Xrotation Yrotation Zrotation
									JOINT RightHandPinky2
									{
										OFFSET -2.861649 0.000000 0.000000
										CHANNELS 3 Xrotation Yrotation Zrotation
										JOINT RightHandPinky3
										{
											OFFSET -2.863380 0.000000 0.000000
											CHANNELS 3 Xrotation Yrotation Zrotation
											End Site
											{
												OFFSET 0.843597 2.711159 0.369971
											}
										}
									}
								}
							}
							JOINT RSleeve
							{
								OFFSET -6.676277 -0.344902 -1.011730
								CHANNELS 3 Xrotation Yrotation Zrotation
								End Site
								{
									OFFSET 0.000000 14.885353 0.000000
								}
							}
						}
					}
				}
				JOINT Backpack
				{
					OFFSET 0.000000 -2.471497 36.677502
					CHANNELS 3 Xrotation Yrotation Zrotation
					End Site
					{
						OFFSET 0.000000 20.427315 0.000000
					}
				}
				JOINT Hood
				{
					OFFSET 0.000000 18.754097 -10.431000
					CHANNELS 3 Xrotation Yrotation Zrotation
					JOINT Hood1
					{
						OFFSET 0.000000 -5.011002 -7.685901
						CHANNELS 3 Xrotation Yrotation Zrotation
						End Site
						{
							OFFSET 0.000000 9.175140 0.000000
						}
					}
				}
				JOINT LHoodieString
				{
					OFFSET 5.250500 16.397697 3.089900
					CHANNELS 3 Xrotation Yrotation Zrotation
					JOINT LHoodieString1
					{
						OFFSET 0.257700 -6.364304 3.694600
						CHANNELS 3 Xrotation Yrotation Zrotation
						JOINT LHoodieString2
						{
							OFFSET 0.000000 -9.643799 2.679100
							CHANNELS 3 Xrotation Yrotation Zrotation
							End Site
							{
								OFFSET 0.000000 10.009018 0.000000
							}
						}
					}
				}
				JOINT RHoodieString
				{
					OFFSET -5.250500 16.397697 3.089900
					CHANNELS 3 Xrotation Yrotation Zrotation
					JOINT RHoodieString1
					{
						OFFSET -0.257700 -6.364304 3.694600
						CHANNELS 3 Xrotation Yrotation Zrotation
						JOINT RHoodieString2
						{
							OFFSET 0.000000 -9.643799 2.679100
							CHANNELS 3 Xrotation Yrotation Zrotation
							End Site
							{
								OFFSET 0.000000 10.009018 0.000000
							}
						}
					}
				}
			}
			JOINT LBackpack_Strap
			{
				OFFSET 15.223200 -7.719803 -6.610900
				CHANNELS 3 Xrotation Yrotation Zrotation
				End Site
				{
					OFFSET 0.000000 16.040596 0.000000
				}
			}
			JOINT RBackpack_Strap
			{
				OFFSET -15.223000 -7.719803 -6.610900
				CHANNELS 3 Xrotation Yrotation Zrotation
				End Site
				{
					OFFSET 0.000000 16.040596 0.000000
				}
			}
		}
	}
	JOINT BoyFacialAnim_Joint
	{
		OFFSET 1.000000 -82.208099 -1.550900
		CHANNELS 3 Xrotation Yrotation Zrotation
		End Site
		{
			OFFSET 0.000000 30.012791 0.000000
		}
	}
}
MOTION
Frames: 4
Frame Time: 0.033333
-0.325727 9.090813 5.996017 90.954760 8.847568 3.617991 0.000000 -0.000001 -0.000001 -15.489233 12.147202 14.503821 8.552830 10.068240 0.108229 36.614373 -4.608964 -7.339968 -0.000001 -0.000001 0.000001 -0.000001 -0.000001 0.000001 0.000000 0.000002 0.000001 -30.542151 -44.479534 -33.392709 26.803269 0.176641 0.994523 6.377818 35.820995 -0.238205 0.000000 -0.000001 -0.000000 0.000000 -0.000001 -0.000000 -0.000001 -0.000004 -0.000000 -0.194896 -1.602406 -0.063648 -0.418142 -3.261503 -0.752840 -0.418143 -3.261505 -0.752843 -20.855260 -1.065389 0.698449 10.194441 -26.041153 -7.988616 0.000001 -0.000000 -0.000000 0.000001 -0.000000 -0.000000 0.000001 -0.000000 -0.000000 0.135538 1.703548 0.364774 -71.075119 3.065568 -27.053333 -0.050102 -121.586465 0.002797 33.295062 0.488185 4.637059 -10.732372 -3.834757 15.780793 2.321149 6.714516 2.170924 0.000002 0.000002 0.000001 3.271469 -0.183859 -2.363123 0.067996 0.764271 -16.879064 -0.000001 0.000002 -0.000005 3.004733 1.194422 -5.954696 -0.085890 -0.354753 -10.511360 -0.000000 -0.000004 -0.000002 2.294790 7.964806 -10.329678 -0.123191 -1.634670 -13.116374 -0.000000 0.000001 -0.000002 1.600480 13.909825 -5.011662 -0.510033 -5.458630 -22.584466 -0.000000 -0.000001 -0.000004 -0.000001 0.000001 0.000001 0.231918 -2.545507 2.870569 -45.341350 -22.971297 44.226773 -0.049764 138.775579 0.000521 43.628527 -5.562318 -17.042481 -14.557139 8.010022 -14.022792 2.321131 -6.714507 -2.170920 0.000001 -0.000000 0.000001 -0.739134 0.744138 4.388642 0.120537 -1.119633 16.859791 0.000001 0.000000 0.000004 -0.858763 -0.706058 7.953963 -0.308959 0.257083 15.055129 0.000001 0.000000 0.000001 1.233242 -10.606997 12.862247 -0.155970 1.883773 13.063302 -0.000000 -0.000000 0.000004 3.742707 -17.156598 12.760030 -0.732813 6.665076 22.274068 -0.000000 -0.000000 0.000000 -0.000002 -0.000001 0.000002 -0.000000 -0.000000 -0.000000 -0.000000 -0.000000 -0.000000 -0.000000 -0.000000 -0.000000 -0.000000 -0.000000 -0.000000 -0.000000 -0.000000 -0.000000 -0.000000 -0.000000 -0.000000 -0.000000 -0.000000 -0.000000 -0.000000 -0.000000 -0.000000 -0.000000 -0.000000 -0.000000 -0.000000 0.000000 0.000000 -0.000000 0.000000 0.000000 0.000000 -0.000001 -0.000001 
-0.400546 9.167679 5.994522 91.439772 8.831181 3.502752 -0.000000 0.000001 0.000000 -16.249408 11.867203 14.779168 9.097795 9.695206 0.084092 34.400979 -5.136708 -8.497384 -0.000000 -0.000002 0.000000 -0.000000 -0.000002 -0.000000 0.000000 0.000002 0.000001 -30.117644 -43.704721 -32.317815 26.539873 0.160944 0.984837 6.240629 34.627567 0.292487 0.000001 -0.000001 0.000000 0.000001 -0.000001 0.000000 -0.000001 -0.000000 -0.000001 -0.274881 -1.602003 -0.099936 -0.575565 -3.260854 -0.742384 -0.575562 -3.260851 -0.742382 -20.151821 -1.068457 0.779141 10.168030 -26.023675 -7.965407 -0.000000 0.000000 0.000000 -0.000000 0.000000 0.000000 -0.000000 0.000000 0.000000 0.135866 1.807652 0.261362 -70.623002 1.706638 -25.727861 -0.049187 -120.866276 0.005080 31.973027 1.532321 7.802012 -10.732376 -3.834757 15.780802 2.321140 6.714502 2.170918 0.000000 0.000000 -0.000002 3.271467 -0.183867 -2.363121 0.068003 0.764268 -16.879062 -0.000001 -0.000002 -0.000002 3.004731 1.194401 -5.954689 -0.085884 -0.354769 -10.511366 0.000000 0.000001 -0.000001 2.294785 7.964801 -10.329671 -0.123187 -1.634648 -13.116380 -0.000000 0.000003 -0.000000 1.600482 13.909783 -5.011657 -0.510042 -5.458621 -22.584471 -0.000000 0.000000 -0.000002 0.000001 0.000000 -0.000001 0.250951 -2.568590 2.917905 -46.238523 -22.377453 44.199575 -0.050283 138.331931 -0.000703 44.190405 -6.216061 -16.558223 -14.746525 8.480564 -13.965499 2.098186 -6.260123 -2.152781 -0.000001 -0.000000 0.000001 -0.702269 0.063710 2.953916 0.114266 -1.101467 16.352661 0.000001 0.000000 0.000002 -0.746937 -1.570375 6.028959 -0.302410 0.228363 14.548583 0.000001 0.000001 -0.000002 1.167937 -10.811786 10.879085 -0.143888 1.830580 12.558470 -0.000001 0.000001 0.000000 3.511722 -16.804929 10.622771 -0.699719 6.584997 21.770313 -0.000001 -0.000000 0.000000 -0.000002 -0.000000 -0.000001 0.000000 -0.000000 -0.000000 0.000000 -0.000000 -0.000000 0.000000 -0.000000 -0.000000 0.000000 -0.000000 -0.000000 0.000000 -0.000000 -0.000000 0.000000 -0.000000 -0.000000 0.000000 -0.000000 -0.000000 0.000000 -0.000000 -0.000000 0.000000 -0.000000 -0.000000 -0.000000 -0.000000 -0.000000 -0.000000 -0.000000 -0.000000 -0.000000 0.000001 0.000000 
-0.512553 9.304535 6.032410 91.723519 8.288312 3.388741 -0.000000 -0.000000 0.000000 -17.109704 11.333760 15.306333 11.063207 8.782291 0.003968 29.436374 -5.967739 -8.122288 -0.000001 -0.000001 0.000000 -0.000001 -0.000001 -0.000000 -0.000000 0.000001 -0.000001 -28.795138 -42.006995 -30.481478 25.887122 0.140872 0.960980 6.817958 33.846739 1.065312 0.000001 0.000000 0.000000 0.000001 0.000000 0.000000 -0.000000 -0.000002 0.000001 -0.330826 -1.486419 -0.116976 -0.680737 -3.022793 -0.641907 -0.680767 -3.022793 -0.641907 -18.257297 -1.027586 0.742970 10.184749 -26.024076 -7.985673 0.000000 -0.000000 0.000000 0.000000 -0.000000 0.000000 0.000000 -0.000000 0.000000 0.103396 2.365742 0.186349 -68.615486 0.200355 -23.250451 -0.050355 -120.050670 0.006269 30.747384 0.774669 10.971798 -10.850687 -4.140905 15.764649 2.176899 6.420551 2.159385 0.000000 0.000001 0.000002 3.269281 -0.177167 -2.201489 0.065943 0.759254 -16.550867 -0.000001 0.000004 -0.000003 3.005915 1.216174 -5.794396 -0.081084 -0.328403 -10.184217 0.000003 0.000000 -0.000001 2.297593 7.986822 -10.150966 -0.116936 -1.607526 -12.789157 -0.000001 -0.000001 -0.000000 1.589238 13.815441 -5.669076 -0.430479 -5.263632 -20.775549 -0.000000 -0.000002 0.000001 -0.000002 0.000000 -0.000002 0.205261 -2.573152 2.404152 -44.883140 -21.537328 42.655938 -0.051644 138.041087 -0.000921 42.779114 -6.887690 -18.135272 -15.201061 9.601839 -13.822204 1.566589 -5.176851 -2.102415 0.000001 0.000000 -0.000001 -0.743601 -1.577667 -0.205691 0.099954 -1.057889 15.143329 0.000000 0.000000 0.000002 -0.687339 -3.631451 1.802055 -0.287824 0.159556 13.340636 0.000001 0.000001 -0.000000 0.998920 -11.253819 6.510294 -0.116931 1.703416 11.354705 0.000000 0.000000 0.000000 3.128922 -15.853393 5.932394 -0.623691 6.392855 20.569524 -0.000001 0.000000 0.000000 -0.000002 0.000002 -0.000002 0.000000 -0.000000 -0.000000 0.000000 -0.000000 -0.000000 0.000000 -0.000000 -0.000000 0.000000 -0.000000 -0.000000 0.000000 -0.000000 -0.000000 0.000000 0.000000 -0.000000 0.000000 -0.000000 -0.000000 0.000000 -0.000000 -0.000000 0.000000 0.000000 -0.000000 0.000000 0.000001 -0.000000 0.000000 0.000001 -0.000000 -0.000000 -0.000000 0.000000 
-0.510808 9.382675 6.164619 91.886856 7.035258 3.463401 -0.000000 -0.000000 -0.000000 -17.500430 10.956358 15.565596 13.757498 7.472877 -0.120926 21.867418 -5.517144 -6.787653 -0.000000 -0.000001 0.000000 -0.000000 -0.000001 0.000000 0.000001 0.000000 0.000002 -28.111848 -40.440266 -30.229120 26.066539 0.162450 0.970075 3.978034 30.149083 1.958852 0.000002 -0.000001 0.000000 0.000002 -0.000001 0.000000 -0.000000 -0.000000 0.000001 -0.391464 -1.244488 -0.136516 -0.792672 -2.528315 -0.476909 -0.792651 -2.528315 -0.476908 -15.697339 -0.831371 0.555161 10.368685 -26.020914 -8.089152 -0.000000 -0.000002 0.000000 -0.000000 -0.000002 0.000000 -0.000000 -0.000002 0.000000 0.029211 2.740196 0.641306 -64.177605 4.321299 -20.818048 -0.053290 -122.917109 0.005812 29.577403 -1.775089 12.239727 -11.133367 -4.870820 15.723562 1.833030 5.719732 2.128922 -0.000001 -0.000006 -0.000000 3.263108 -0.158657 -1.752130 0.061137 0.747156 -15.768267 -0.000000 0.000000 -0.000002 3.008894 1.276625 -5.348747 -0.070245 -0.265511 -9.404115 0.000002 -0.000000 -0.000001 2.304818 8.046312 -9.668523 -0.102645 -1.542694 -12.008951 0.000001 -0.000001 -0.000002 1.557975 13.590952 -7.235722 -0.266082 -4.789351 -16.465433 -0.000002 0.000002 0.000002 -0.000001 0.000001 0.000001 0.121257 -2.939134 2.223485 -38.107681 -21.233952 40.732803 -0.053136 138.178620 0.000241 40.649147 -5.564088 -23.694201 -15.749422 10.938571 -13.638648 0.931937 -3.884603 -2.029222 0.000002 0.000001 -0.000002 -0.988160 -3.563832 -3.381270 0.084084 -1.005488 13.699996 -0.000001 0.000001 0.000000 -0.927522 -6.049481 -2.417409 -0.272316 0.077140 11.898966 -0.000000 0.000001 0.000002 0.795757 -11.681840 2.133554 -0.088279 1.550910 9.918170 -0.000001 -0.000000 0.000002 2.955585 -14.517985 1.241266 -0.538315 6.161518 19.137292 -0.000001 0.000000 -0.000003 0.000001 0.000001 -0.000002 0.000000 -0.000000 -0.000000 0.000000 -0.000000 -0.000000 0.000000 -0.000000 -0.000000 0.000000 -0.000000 -0.000000 0.000000 -0.000000 -0.000000 0.000000 -0.000000 -0.000000 0.000000 -0.000000 -0.000000 0.000000 -0.000000 -0.000000 0.000000 -0.000000 -0.000000 0.000000 -0.000000 0.000000 0.000000 -0.000000 0.000000 -0.000000 -0.000000 -0.000000 
